{
    "asset" : {
        "generator" : "Khronos glTF Blender I/O v1.6.16",
        "version" : "2.0"
    },
    "scene" : 0,
    "scenes" : [
        {
            "name" : "Scene",
            "nodes" : [
                2
            ]
        }
    ],
    "nodes" : [
        {
            "mesh" : 0,
            "name" : "core",
            "scale" : [
                124.2168197631836,
                138.8888397216797,
                147.98570251464844
            ],
            "translation" : [
                -6.103515625e-05,
                26.625972747802734,
                6.103515625e-05
            ]
        },
        {
            "mesh" : 1,
            "name" : "legs",
            "scale" : [
                124.2168197631836,
                138.8888397216797,
                147.98570251464844
            ],
            "translation" : [
                -17.5679931640625,
                7.181535243988037,
                52.445037841796875
            ]
        },
        {
            "children" : [
                0,
                1
            ],
            "mesh" : 2,
            "name" : "surface",
            "rotation" : [
                0,
                0.7071068286895752,
                0,
                0.7071068286895752
            ]
        }
    ],
    "materials" : [
        {
            "doubleSided" : true,
            "name" : "kitchen DRESSER.001",
            "pbrMetallicRoughness" : {
                "baseColorFactor" : [
                    0.19816114008426666,
                    0.04737543314695358,
                    0,
                    1
                ],
                "metallicFactor" : 0,
                "roughnessFactor" : 0.5
            }
        },
        {
            "doubleSided" : true,
            "name" : "kitchen DRESSER.002",
            "pbrMetallicRoughness" : {
                "baseColorFactor" : [
                    0.7889689207077026,
                    0.7889689207077026,
                    0.7889689207077026,
                    1
                ],
                "metallicFactor" : 0,
                "roughnessFactor" : 0.5
            }
        }
    ],
    "meshes" : [
        {
            "name" : "Cube.057",
            "primitives" : [
                {
                    "attributes" : {
                        "POSITION" : 0,
                        "NORMAL" : 1,
                        "TEXCOORD_0" : 2
                    },
                    "indices" : 3,
                    "material" : 0
                }
            ]
        },
        {
            "name" : "Cone",
            "primitives" : [
                {
                    "attributes" : {
                        "POSITION" : 4,
                        "NORMAL" : 5,
                        "TEXCOORD_0" : 6
                    },
                    "indices" : 7,
                    "material" : 0
                }
            ]
        },
        {
            "name" : "Cube.060",
            "primitives" : [
                {
                    "attributes" : {
                        "POSITION" : 8,
                        "NORMAL" : 9,
                        "TEXCOORD_0" : 10
                    },
                    "indices" : 11,
                    "material" : 1
                }
            ]
        }
    ],
    "accessors" : [
        {
            "bufferView" : 0,
            "componentType" : 5126,
            "count" : 3405,
            "max" : [
                0.2493056207895279,
                0.07500003278255463,
                0.4930556118488312
            ],
            "min" : [
                -0.2493056207895279,
                -0.07500003278255463,
                -0.4930556118488312
            ],
            "type" : "VEC3"
        },
        {
            "bufferView" : 1,
            "componentType" : 5126,
            "count" : 3405,
            "type" : "VEC3"
        },
        {
            "bufferView" : 2,
            "componentType" : 5126,
            "count" : 3405,
            "type" : "VEC2"
        },
        {
            "bufferView" : 3,
            "componentType" : 5123,
            "count" : 17664,
            "type" : "SCALAR"
        },
        {
            "bufferView" : 4,
            "componentType" : 5126,
            "count" : 4916,
            "max" : [
                0.3439759314060211,
                0.05148094892501831,
                0.06111518293619156
            ],
            "min" : [
                -0.06111576408147812,
                -0.05058423802256584,
                -0.7699004411697388
            ],
            "type" : "VEC3"
        },
        {
            "bufferView" : 5,
            "componentType" : 5126,
            "count" : 4916,
            "type" : "VEC3"
        },
        {
            "bufferView" : 6,
            "componentType" : 5126,
            "count" : 4916,
            "type" : "VEC2"
        },
        {
            "bufferView" : 7,
            "componentType" : 5123,
            "count" : 23040,
            "type" : "SCALAR"
        },
        {
            "bufferView" : 8,
            "componentType" : 5126,
            "count" : 6800,
            "max" : [
                30,
                39.12598419189453,
                74.99999237060547
            ],
            "min" : [
                -30,
                14.12597942352295,
                -75
            ],
            "type" : "VEC3"
        },
        {
            "bufferView" : 9,
            "componentType" : 5126,
            "count" : 6800,
            "type" : "VEC3"
        },
        {
            "bufferView" : 10,
            "componentType" : 5126,
            "count" : 6800,
            "type" : "VEC2"
        },
        {
            "bufferView" : 11,
            "componentType" : 5123,
            "count" : 36864,
            "type" : "SCALAR"
        }
    ],
    "bufferViews" : [
        {
            "buffer" : 0,
            "byteLength" : 40860,
            "byteOffset" : 0
        },
        {
            "buffer" : 0,
            "byteLength" : 40860,
            "byteOffset" : 40860
        },
        {
            "buffer" : 0,
            "byteLength" : 27240,
            "byteOffset" : 81720
        },
        {
            "buffer" : 0,
            "byteLength" : 35328,
            "byteOffset" : 108960
        },
        {
            "buffer" : 0,
            "byteLength" : 58992,
            "byteOffset" : 144288
        },
        {
            "buffer" : 0,
            "byteLength" : 58992,
            "byteOffset" : 203280
        },
        {
            "buffer" : 0,
            "byteLength" : 39328,
            "byteOffset" : 262272
        },
        {
            "buffer" : 0,
            "byteLength" : 46080,
            "byteOffset" : 301600
        },
        {
            "buffer" : 0,
            "byteLength" : 81600,
            "byteOffset" : 347680
        },
        {
            "buffer" : 0,
            "byteLength" : 81600,
            "byteOffset" : 429280
        },
        {
            "buffer" : 0,
            "byteLength" : 54400,
            "byteOffset" : 510880
        },
        {
            "buffer" : 0,
            "byteLength" : 73728,
            "byteOffset" : 565280
        }
    ],
    "buffers" : [
        {
            "byteLength" : 639008,
            "uri" : "data:application/octet-stream;base64,"
        }
    ]
}
