{
    "asset" : {
        "generator" : "Khronos glTF Blender I/O v1.5.17",
        "version" : "2.0"
    },
    "scene" : 0,
    "scenes" : [
        {
            "name" : "Scene",
            "nodes" : [
                0,
                1
            ]
        }
    ],
    "nodes" : [
        {
            "mesh" : 0,
            "name" : "Plant"
        },
        {
            "mesh" : 1,
            "name" : "Pot",
            "scale" : [
                24.294038772583008,
                24.294038772583008,
                24.294038772583008
            ]
        }
    ],
    "materials" : [
        {
            "doubleSided" : true,
            "name" : "Stem",
            "pbrMetallicRoughness" : {
                "baseColorFactor" : [
                    0.8000000715255737,
                    0.5478982925415039,
                    0.13221856951713562,
                    1
                ],
                "metallicFactor" : 0,
                "roughnessFactor" : 0.5
            }
        },
        {
            "doubleSided" : true,
            "name" : "Leaves",
            "pbrMetallicRoughness" : {
                "baseColorFactor" : [
                    0.048273418098688126,
                    0.3628927767276764,
                    0,
                    1
                ],
                "metallicFactor" : 0,
                "roughnessFactor" : 0.5
            }
        },
        {
            "doubleSided" : true,
            "name" : "Pot",
            "pbrMetallicRoughness" : {
                "baseColorFactor" : [
                    0.8000000715255737,
                    0.6734776496887207,
                    0,
                    1
                ],
                "metallicFactor" : 0,
                "roughnessFactor" : 0.5
            }
        },
        {
            "doubleSided" : true,
            "name" : "Soil",
            "pbrMetallicRoughness" : {
                "baseColorFactor" : [
                    0.1119748055934906,
                    0.02742846868932247,
                    0.015489663928747177,
                    1
                ],
                "metallicFactor" : 0,
                "roughnessFactor" : 0.5
            }
        }
    ],
    "meshes" : [
        {
            "name" : "Cylinder.2436",
            "primitives" : [
                {
                    "attributes" : {
                        "POSITION" : 0,
                        "NORMAL" : 1,
                        "TEXCOORD_0" : 2
                    },
                    "indices" : 3,
                    "material" : 0
                },
                {
                    "attributes" : {
                        "POSITION" : 4,
                        "NORMAL" : 5,
                        "TEXCOORD_0" : 6
                    },
                    "indices" : 7,
                    "material" : 1
                }
            ]
        },
        {
            "name" : "Cylinder.002",
            "primitives" : [
                {
                    "attributes" : {
                        "POSITION" : 8,
                        "NORMAL" : 9,
                        "TEXCOORD_0" : 10
                    },
                    "indices" : 11,
                    "material" : 2
                },
                {
                    "attributes" : {
                        "POSITION" : 12,
                        "NORMAL" : 13,
                        "TEXCOORD_0" : 14
                    },
                    "indices" : 15,
                    "material" : 3
                }
            ]
        }
    ],
    "accessors" : [
        {
            "bufferView" : 0,
            "componentType" : 5126,
            "count" : 676,
            "max" : [
                17.943653106689453,
                130.0191650390625,
                7.70738410949707
            ],
            "min" : [
                -3.326843738555908,
                44.507408142089844,
                -2.0800187587738037
            ],
            "type" : "VEC3"
        },
        {
            "bufferView" : 1,
            "componentType" : 5126,
            "count" : 676,
            "type" : "VEC3"
        },
        {
            "bufferView" : 2,
            "componentType" : 5126,
            "count" : 676,
            "type" : "VEC2"
        },
        {
            "bufferView" : 3,
            "componentType" : 5123,
            "count" : 1056,
            "type" : "SCALAR"
        },
        {
            "bufferView" : 4,
            "componentType" : 5126,
            "count" : 11720,
            "max" : [
                17.943653106689453,
                150.03378295898438,
                16.454086303710938
            ],
            "min" : [
                -18.266380310058594,
                105.130615234375,
                -17.369979858398438
            ],
            "type" : "VEC3"
        },
        {
            "bufferView" : 5,
            "componentType" : 5126,
            "count" : 11720,
            "type" : "VEC3"
        },
        {
            "bufferView" : 6,
            "componentType" : 5126,
            "count" : 11720,
            "type" : "VEC2"
        },
        {
            "bufferView" : 7,
            "componentType" : 5123,
            "count" : 17580,
            "type" : "SCALAR"
        },
        {
            "bufferView" : 8,
            "componentType" : 5126,
            "count" : 796,
            "max" : [
                0.5204331278800964,
                2.0146379470825195,
                0.5210651755332947
            ],
            "min" : [
                -0.5190627574920654,
                0.0034513473510742188,
                -0.5184307098388672
            ],
            "type" : "VEC3"
        },
        {
            "bufferView" : 9,
            "componentType" : 5126,
            "count" : 796,
            "type" : "VEC3"
        },
        {
            "bufferView" : 10,
            "componentType" : 5126,
            "count" : 796,
            "type" : "VEC2"
        },
        {
            "bufferView" : 11,
            "componentType" : 5123,
            "count" : 1242,
            "type" : "SCALAR"
        },
        {
            "bufferView" : 12,
            "componentType" : 5126,
            "count" : 32,
            "max" : [
                0.47695890069007874,
                1.8320224285125732,
                0.4775905907154083
            ],
            "min" : [
                -0.4755879044532776,
                1.8320224285125732,
                -0.4749562740325928
            ],
            "type" : "VEC3"
        },
        {
            "bufferView" : 13,
            "componentType" : 5126,
            "count" : 32,
            "type" : "VEC3"
        },
        {
            "bufferView" : 14,
            "componentType" : 5126,
            "count" : 32,
            "type" : "VEC2"
        },
        {
            "bufferView" : 15,
            "componentType" : 5123,
            "count" : 90,
            "type" : "SCALAR"
        }
    ],
    "bufferViews" : [
        {
            "buffer" : 0,
            "byteLength" : 8112,
            "byteOffset" : 0
        },
        {
            "buffer" : 0,
            "byteLength" : 8112,
            "byteOffset" : 8112
        },
        {
            "buffer" : 0,
            "byteLength" : 5408,
            "byteOffset" : 16224
        },
        {
            "buffer" : 0,
            "byteLength" : 2112,
            "byteOffset" : 21632
        },
        {
            "buffer" : 0,
            "byteLength" : 140640,
            "byteOffset" : 23744
        },
        {
            "buffer" : 0,
            "byteLength" : 140640,
            "byteOffset" : 164384
        },
        {
            "buffer" : 0,
            "byteLength" : 93760,
            "byteOffset" : 305024
        },
        {
            "buffer" : 0,
            "byteLength" : 35160,
            "byteOffset" : 398784
        },
        {
            "buffer" : 0,
            "byteLength" : 9552,
            "byteOffset" : 433944
        },
        {
            "buffer" : 0,
            "byteLength" : 9552,
            "byteOffset" : 443496
        },
        {
            "buffer" : 0,
            "byteLength" : 6368,
            "byteOffset" : 453048
        },
        {
            "buffer" : 0,
            "byteLength" : 2484,
            "byteOffset" : 459416
        },
        {
            "buffer" : 0,
            "byteLength" : 384,
            "byteOffset" : 461900
        },
        {
            "buffer" : 0,
            "byteLength" : 384,
            "byteOffset" : 462284
        },
        {
            "buffer" : 0,
            "byteLength" : 256,
            "byteOffset" : 462668
        },
        {
            "buffer" : 0,
            "byteLength" : 180,
            "byteOffset" : 462924
        }
    ],
    "buffers" : [
        {
            "byteLength" : 463104,
            "uri" : "data:application/octet-stream;base64,"
        }
    ]
}
